<?xml version="1.0" encoding="UTF-8"?>
<svg xmlns="http://www.w3.org/2000/svg" xmlns:xlink="http://www.w3.org/1999/xlink" width="438pt" height="279pt" viewBox="0 0 438 279" version="1.1">
<g id="surface686">
<rect x="0" y="0" width="438" height="279" style="fill:rgb(100%,100%,100%);fill-opacity:1;stroke:none;"/>
<path style="fill:none;stroke-width:2.133957;stroke-linecap:butt;stroke-linejoin:round;stroke:rgb(20%,40%,100%);stroke-opacity:1;stroke-miterlimit:1;" d="M 22.523438 12.558594 L 27.53125 39.867188 L 32.542969 66.769531 L 37.550781 92.871094 L 42.558594 117.757812 L 47.566406 141.03125 L 52.578125 162.285156 L 57.585938 181.117188 L 62.59375 197.128906 L 67.601562 209.910156 L 72.613281 219.324219 L 77.621094 225.8125 L 82.628906 229.890625 L 87.636719 232.074219 L 92.648438 232.886719 L 97.65625 232.839844 L 102.664062 232.453125 L 107.671875 232.242188 L 112.683594 232.707031 L 117.691406 233.941406 L 122.699219 235.667969 L 127.707031 237.597656 L 132.714844 239.445312 L 137.726562 240.917969 L 142.734375 241.734375 L 147.742188 241.601562 L 152.75 240.230469 L 157.761719 237.394531 L 162.769531 233.269531 L 167.777344 228.164062 L 172.785156 222.398438 L 177.796875 216.285156 L 182.804688 210.136719 L 187.8125 204.273438 L 192.820312 199.011719 L 197.832031 194.660156 L 202.839844 191.4375 L 207.847656 189.332031 L 212.855469 188.304688 L 217.867188 188.308594 L 222.875 189.304688 L 227.882812 191.242188 L 232.890625 194.089844 L 237.902344 197.796875 L 242.910156 202.320312 L 247.917969 207.523438 L 252.925781 213.1875 L 257.933594 219.09375 L 262.945312 225.015625 L 267.953125 230.742188 L 272.960938 236.042969 L 277.96875 240.699219 L 282.980469 244.492188 L 287.988281 247.242188 L 292.996094 249.027344 L 298.003906 250.039062 L 303.015625 250.460938 L 308.023438 250.480469 L 313.03125 250.28125 L 318.039062 250.054688 L 323.050781 249.976562 L 328.058594 250.246094 L 333.066406 250.960938 L 338.074219 252.054688 L 343.085938 253.4375 L 348.09375 255.003906 L 358.109375 258.316406 L 363.121094 259.867188 L 368.128906 261.222656 L 373.136719 262.289062 L 378.144531 263.035156 L 383.152344 263.496094 L 388.164062 263.703125 L 393.171875 263.695312 L 398.179688 263.511719 L 403.1875 263.183594 L 408.199219 262.746094 L 413.207031 262.238281 L 418.214844 261.695312 "/>
</g>
</svg>
